<?xml version="1.0" encoding="UTF-8"?><svg id="Capa_1" xmlns="http://www.w3.org/2000/svg" viewBox="0 0 274.86 258.8"><defs><style>.cls-1{fill:#937739;stroke-width:0px;}</style></defs><path class="cls-1" d="M137.33.03c30.32,0,60.65-.04,90.97.01,26.89.05,46.51,19.81,46.54,46.83.04,40.15.03,80.31,0,120.46-.02,26.15-20.07,46.18-46.28,46.24-20.33.04-40.65-.12-60.98.15-3.04.04-6.54,1.28-9,3.09-18.11,13.31-35.92,27.02-54.08,40.27-2.15,1.57-6.3,2.24-8.6,1.23-1.99-.87-3.67-4.69-3.77-7.27-.41-10.81-.31-21.65-.11-32.48.07-3.93-1.24-5.14-5.18-5.08-13.49.22-26.99.12-40.48.08-26.18-.08-46.09-19.54-46.21-45.64C-.05,126.95-.04,85.96.12,44.98.21,19.77,20.05.15,45.36.06c30.66-.11,61.31-.03,91.97-.03ZM106.24,237.32c2.78-1.85,4.2-2.69,5.5-3.67,13.59-10.19,27.23-20.32,40.69-30.68,3.63-2.79,7.31-4.07,11.91-4.03,21.83.17,43.66.17,65.5.03,16.51-.11,30.36-13.88,30.4-30.31.1-41.16.1-82.33,0-123.49-.04-16.86-13.68-30.51-30.6-30.53-61-.1-121.99-.11-182.99-.02-19.25.03-32.23,13.22-32.26,32.49-.06,39.66-.07,79.33,0,118.99.03,19.73,13.3,32.88,32.95,32.89,16.83.01,33.66-.02,50.5.06,5.83.03,8.16,2.39,8.32,8.18.13,4.83.06,9.66.07,14.5,0,4.75,0,9.49,0,15.57Z"/><path class="cls-1" d="M183.13,92.69c-.91,3.35-1.76,9.41-4.18,14.75-7.7,17.03-19.9,30.54-34.7,41.77-3.5,2.66-7.38,4.31-11.48,1.39-17.7-12.63-32.2-28.06-38.99-49.12-1.95-6.04-2.1-13.39-.75-19.63,3.98-18.38,23.81-26.16,40.52-16.51,2.51,1.45,4.31,2.15,7.16.37,9.15-5.71,18.81-6.42,28.39-1.06,9.86,5.52,13.51,14.63,14.03,28.04ZM169.4,90.37c-1-8.51-5.57-14.73-12.71-14.31-4.06.24-8.67,2.46-11.77,5.21-6.26,5.55-8.84,5.94-14.89-.2-.82-.83-1.68-1.62-2.61-2.32-8.26-6.25-19.35-2.43-20.36,7.83-.57,5.77.91,12.32,3.32,17.69,5.47,12.2,15.02,21.47,24.96,30.17.81.71,3.68.48,4.43-.35,7.96-8.89,16.21-17.62,23.25-27.21,3.37-4.59,4.34-10.94,6.4-16.49Z"/></svg>