<?xml version="1.0" encoding="UTF-8"?><svg id="Capa_1" xmlns="http://www.w3.org/2000/svg" viewBox="0 0 425 400"><defs><style>.cls-1{fill:#fff;stroke-width:0px;}</style></defs><path class="cls-1" d="M425,67v307c-1.59,3.59-2.91,7.34-4.84,10.75-4.67,8.28-12.57,12.3-21.16,15.25H26c-7-2.58-14.14-5.22-18.51-11.65C4.48,383.91,2.46,378.81,0,374c0-102.33,0-204.67,0-307,.24-.22.59-.39.7-.66,7.67-19.02,16.11-24.69,36.76-24.69,4.08,0,8.15,0,12.51,0,0-6.58.37-12.25-.08-17.86-.88-10.96,2.66-19.21,13.1-23.79h29c10.31,3.93,14.39,11.59,13.7,22.35-.32,4.98.1,10-.11,14.99-.13,3.2.9,4.36,4.23,4.36,68.47-.07,136.94-.06,205.41.03,3.36,0,4.32-1.22,4.2-4.38-.19-4.99.25-10.01-.1-14.99-.75-10.8,3.44-18.38,13.67-22.36h29c10.1,4.53,14,12.39,13.11,23.27-.48,5.9-.09,11.86-.09,18.44,6.74,0,12.86-.17,18.98.04,13.53.47,24.52,8.59,29.2,21.29.5,1.36,1.2,2.65,1.8,3.97ZM410.34,131.46H14.66c0,2.57,0,4.86,0,7.14,0,75.14,0,150.28,0,225.42,0,15.12,6.14,21.3,21.11,21.3,118.13,0,236.25,0,354.38,0,13.64,0,20.19-6.52,20.19-20.2,0-75.81,0-151.62,0-227.42v-6.24ZM49.98,56.24c-6.57,0-12.37-.18-18.16.04-10.06.39-17,7.61-17.12,17.77-.12,10.33-.03,20.66-.04,30.99,0,3.61,0,7.23,0,11.12h395.38c0-15.45.37-30.58-.17-45.68-.23-6.45-4.76-11.67-10.93-12.93-7.64-1.57-15.67-1.24-23.92-1.75,0,8.24.03,15.22,0,22.21-.08,12.78-7.08,19.85-19.74,19.94-5,.04-10,.01-14.99,0-14.11,0-20.85-6.71-20.9-20.81-.02-6.78,0-13.57,0-20.61H105.63c0,7.96.18,15.59-.04,23.22-.32,10.92-7.6,17.99-18.48,18.18-5.83.1-11.66.05-17.49.01-12.39-.09-19.53-7.19-19.62-19.56-.06-7.14-.01-14.28-.01-22.14ZM90.97,48.94c0-9.81-.06-19.62.03-29.42.03-3.34-1.3-4.93-4.69-4.9-5.65.06-11.3.07-16.95-.01-3.41-.05-4.75,1.55-4.75,4.86.05,19.61.05,39.23,0,58.84,0,3.62,1.61,5.06,5.18,4.96,5.32-.14,10.64-.16,15.96,0,3.89.11,5.32-1.63,5.27-5.4-.12-9.64-.04-19.28-.05-28.92ZM360.37,48.87h-.02c0-9.65-.1-19.3.05-28.94.06-3.87-1.48-5.43-5.3-5.33-5.32.14-10.65.13-15.96,0-3.53-.08-5.17,1.25-5.16,4.94.08,19.63.06,39.25.01,58.88,0,3.36,1.38,4.87,4.77,4.81,4.99-.09,9.98,0,14.97,0,6.14,0,6.61-.43,6.64-6.42.03-9.31,0-18.63,0-27.94Z"/><path class="cls-1" d="M69,366.08c-6.83,0-13.66.07-20.48-.02-5.95-.08-8.53-2.64-8.55-8.57-.06-13.99-.06-27.97,0-41.96.03-5.86,2.63-8.41,8.65-8.45,13.82-.1,27.64-.11,41.46-.04,6.24.03,8.83,2.65,8.85,8.85.06,13.82.07,27.64,0,41.46-.03,6.12-2.71,8.68-8.95,8.73-6.99.06-13.99.01-20.98.01ZM83.84,351.21v-29.49c-9.08,0-17.71-.08-26.34.11-.99.02-2.78,1.53-2.8,2.39-.21,8.92-.13,17.84-.13,27h29.27Z"/><path class="cls-1" d="M355.76,366.08c-6.83,0-13.66.04-20.48-.01-6.62-.05-9.16-2.49-9.19-8.95-.06-13.66-.06-27.31-.01-40.97.02-6.53,2.56-9.08,9.07-9.1,13.66-.06,27.31-.06,40.97,0,6.3.03,8.89,2.53,8.92,8.72.07,13.99.08,27.98,0,41.97-.03,5.67-2.59,8.2-8.29,8.3-6.99.12-13.99.03-20.98.03v.02ZM341.16,321.97v29.21h28.93v-29.21h-28.93Z"/><path class="cls-1" d="M39.94,179.97c0-6.99-.07-13.98.03-20.97.09-5.96,2.54-8.54,8.57-8.59,13.81-.13,27.63-.15,41.44,0,6.6.07,8.92,2.65,8.94,9.27.05,13.65.06,27.3,0,40.95-.02,5.99-2.48,8.71-8.37,8.77-14.15.13-28.3.14-42.44,0-5.66-.06-8.09-2.74-8.16-8.45-.09-6.99-.02-13.98-.02-20.97ZM83.87,194.67v-29.24h-28.84v29.24h28.84Z"/><path class="cls-1" d="M355.49,228.79c6.99,0,13.99-.07,20.98.02,6.07.08,8.53,2.49,8.56,8.52.08,13.98.08,27.97,0,41.95-.03,5.87-2.68,8.48-8.62,8.52-13.82.07-27.64.07-41.45,0-6.21-.03-8.83-2.64-8.87-8.82-.08-13.82-.09-27.64-.03-41.45.03-6.15,2.64-8.64,8.95-8.71,6.82-.08,13.65-.02,20.48-.02ZM340.77,243.57c0,9.26-.06,18.07.1,26.87.02.9,1.37,2.54,2.13,2.55,8.94.18,17.89.12,27.16.12v-29.54h-29.38Z"/><path class="cls-1" d="M385.05,180.08c0,6.82.05,13.65-.02,20.47-.06,6.14-2.35,8.75-8.27,8.82-14.31.16-28.63.16-42.94.05-4.97-.04-7.67-2.85-7.71-7.91-.11-14.31-.12-28.63,0-42.95.04-5.36,2.67-8.05,8.04-8.1,14.31-.15,28.63-.16,42.94-.02,5.36.05,7.84,2.75,7.93,8.17.12,7.16.03,14.31.03,21.47ZM370.2,165.35h-29.1v29.09h29.1v-29.09Z"/><path class="cls-1" d="M164.5,366.08c-6.66,0-13.32.04-19.98-.01-6.62-.05-9.21-2.5-9.25-8.95-.08-13.65-.08-27.31-.01-40.96.03-6.52,2.61-9.1,9.09-9.12,13.65-.05,27.31-.06,40.96.02,6.49.04,8.92,2.57,8.95,9.2.05,13.65.06,27.31,0,40.96-.03,6.22-2.6,8.79-8.79,8.85-6.99.07-13.99.02-20.98.01ZM179.42,351.24v-29.18h-29.16v29.18h29.16Z"/><path class="cls-1" d="M69.27,228.78c6.83,0,13.65-.04,20.48.01,6.63.05,9.16,2.48,9.18,8.97.06,13.65.06,27.3,0,40.96-.03,6.49-2.6,9.05-9.13,9.07-13.65.06-27.3.06-40.96,0-6.27-.03-8.86-2.57-8.89-8.76-.07-13.82-.06-27.64,0-41.46.03-6.3,2.5-8.72,8.82-8.78,6.83-.07,13.65-.02,20.48-.01ZM54.81,272.71h29.18v-29.08h-29.18v29.08Z"/><path class="cls-1" d="M164.5,287.82c-6.66,0-13.32.05-19.99-.01-6.63-.06-9.21-2.49-9.25-8.99-.08-13.66-.07-27.31,0-40.97.04-6.65,2.5-9.04,9.1-9.06,13.49-.04,26.98-.04,40.47.01,7.11.03,9.36,2.22,9.39,9.16.06,13.49.06,26.98.03,40.47-.02,6.87-2.52,9.36-9.28,9.4-6.83.03-13.66,0-20.49,0v-.02ZM150.3,243.55v29.21h29.06v-29.21h-29.06Z"/><path class="cls-1" d="M194.28,180.12c0,6.99.09,13.99-.03,20.98-.09,5.68-2.59,8.3-8.27,8.34-13.98.12-27.97.12-41.96-.01-6.32-.06-8.72-2.58-8.76-8.95-.08-13.65-.08-27.31-.01-40.96.03-6.51,2.57-9.1,9.13-9.15,13.65-.1,27.31-.1,40.96.02,6.6.06,8.89,2.55,8.95,9.24.06,6.83.01,13.65.01,20.48h-.03ZM179.44,165.31h-29.2v29.24h29.2v-29.24Z"/><path class="cls-1" d="M259.99,287.83c-6.99,0-13.99.06-20.98-.03-5.6-.07-8.3-2.65-8.34-8.28-.11-14.15-.13-28.3,0-42.45.05-5.79,2.59-8.23,8.31-8.27,13.99-.09,27.97-.09,41.96-.01,6.13.03,8.72,2.72,8.74,8.97.05,13.65.05,27.31-.04,40.96-.04,6.5-2.67,9.04-9.17,9.1-6.83.07-13.65.01-20.48,0ZM274.76,273.12v-29.39h-29.6c0,9.08-.1,17.71.13,26.33.03,1.04,1.75,2.9,2.72,2.93,8.76.23,17.53.13,26.75.13Z"/><path class="cls-1" d="M230.73,179.82c0-6.99-.08-13.98.03-20.97.09-5.73,2.54-8.37,8.19-8.42,14.15-.13,28.3-.14,42.44,0,5.62.06,8.28,2.84,8.32,8.38.09,13.98.1,27.96,0,41.94-.04,5.99-2.61,8.64-8.52,8.69-14.15.11-28.3.1-42.44-.03-5.38-.05-7.87-2.67-7.98-8.12-.14-7.15-.03-14.31-.04-21.47ZM245.61,165.27v29.25h29.12v-29.25h-29.12Z"/><path class="cls-1" d="M250.55,344.66c10.36-10.44,19.78-20.05,29.36-29.51,1.58-1.56,3.91-3.59,5.71-3.43,2.59.23,5.75,1.7,7.33,3.69,2.34,2.95.93,6.34-1.66,8.94-6.45,6.49-12.94,12.94-19.4,19.41-4.94,4.94-9.83,9.93-14.82,14.82-4.5,4.4-8.05,4.42-12.49.07-5.11-5-10.17-10.06-15.18-15.16-3.67-3.73-3.96-7.91-.94-11.05,3.04-3.16,7.36-3.11,11.03.48,3.67,3.59,7.06,7.46,11.06,11.73Z"/></svg>