<?xml version="1.0" encoding="UTF-8"?><svg id="Capa_1" xmlns="http://www.w3.org/2000/svg" viewBox="0 0 192.12 256.37"><defs><style>.cls-1{fill:#fff;stroke-width:0px;}</style></defs><path class="cls-1" d="M90.23,0c60.7.01,104.82,46.48,101.73,101.17-.98,17.39-6.85,33.52-14.39,49.06-16,32.96-37.96,61.78-62.18,89-4.21,4.73-8.51,9.38-12.98,13.86-4.16,4.18-8.33,4.43-12.25.31-33.11-34.83-63.06-71.91-81.45-116.97-11.22-27.51-12.44-55.18,1.22-82.23C27.73,18.99,57.24,1.86,90.23,0ZM144.11,96.19c.07-26.46-21.53-48.11-47.98-48.11-26.25,0-47.79,21.38-47.98,47.61-.19,26.46,21.29,48.23,47.73,48.36,26.45.13,48.16-21.41,48.23-47.86Z"/></svg>