<?xml version="1.0" encoding="utf-8"?>
<!-- Generator: Adobe Illustrator 28.3.0, SVG Export Plug-In . SVG Version: 6.00 Build 0)  -->
<svg version="1.1" id="Capa_1" xmlns="http://www.w3.org/2000/svg" xmlns:xlink="http://www.w3.org/1999/xlink" x="0px" y="0px"
	 viewBox="0 0 9.9 9.9" style="enable-background:new 0 0 9.9 9.9;" xml:space="preserve">
<style type="text/css">
	.st0{fill:#FFFFFF;}
</style>
<g>
	<path d="M-64.7,181.3c0.6,0,1.3,0,1.9,0c0.1,0,0.2,0,0.3,0c1.4,0.1,2.7,0.3,4.1,0.6c4.4,1,8.2,3.1,11.4,6.2c4.1,4,6.4,8.8,7.1,14.5
		c0.1,0.5,0.1,1,0.1,1.5c0,0.6,0,1.3,0,1.9c0,0.1,0,0.2,0,0.3c-0.1,1-0.2,2.1-0.4,3.1c-1,5.1-3.4,9.5-7.2,13
		c-3.9,3.6-8.5,5.7-13.8,6.3c-0.5,0.1-0.9,0.1-1.4,0.1c-0.7,0-1.5,0-2.2,0c-0.1,0-0.2,0-0.3,0c-0.5,0-0.9-0.1-1.4-0.1
		c-3.4-0.4-6.5-1.5-9.4-3.2c-0.1-0.1-0.3-0.1-0.4,0c-1.5,0.6-3.1,1.2-4.6,1.8c-0.8,0.3-1.6,0.6-2.4,0.9c0-0.2,0-0.3,0.1-0.4
		c0.4-2.5,0.8-4.9,1.1-7.4c0-0.1,0-0.3-0.1-0.4c-1.2-1.5-2.2-3-3-4.7c-1.2-2.5-1.9-5-2.2-7.8c-0.1-0.5-0.1-1-0.1-1.5
		c0-0.7,0-1.4,0-2.1c0-0.1,0-0.2,0-0.3c0.1-1.7,0.4-3.3,0.8-4.9c1.7-6,5.3-10.7,10.6-14c3.1-1.9,6.4-3,10-3.4
		C-65.7,181.4-65.2,181.4-64.7,181.3z M-50.9,214.2c-0.1-0.5-0.2-1-0.2-1.6c0-0.2-0.1-0.3-0.3-0.3c-2.1-0.8-4.3-1.7-6.4-2.5
		c-0.4-0.2-0.5-0.1-0.8,0.2c-0.6,0.9-1.3,1.7-1.9,2.6c-0.3,0.4-0.4,0.4-0.8,0.2c-0.7-0.5-1.5-0.9-2.2-1.4c-2.4-1.5-4.2-3.6-5.5-6.1
		c-0.7-1.3-1.1-2.7-1.5-4.2c-0.2-0.8-0.2-0.8,0.5-1.1c0.9-0.4,1.8-0.8,2.8-1.1c0.4-0.2,0.5-0.3,0.4-0.7c0-0.3-0.1-0.7-0.1-1
		c-0.2-1.9-0.5-3.9-0.7-5.8c0-0.1-0.1-0.2-0.1-0.2c-1.2-0.6-2.4-0.9-3.8-0.7c-1.6,0.2-3,1-3.9,2.3c-0.7,1-0.9,2.2-0.9,3.4
		c0,2.8,0.5,5.6,1.4,8.3c1.5,4.2,3.9,7.8,7.4,10.6c2.9,2.3,6.2,3.9,9.7,4.8c1,0.3,2.1,0.3,3.1,0C-52.6,219-50.9,216.7-50.9,214.2z"
		/>
</g>
<g>
	<path class="st0" d="M4.5,0c0.1,0,0.3,0,0.4,0c0,0,0,0,0.1,0c0.3,0,0.5,0.1,0.8,0.1C6.6,0.3,7.4,0.7,8,1.4c0.8,0.8,1.3,1.8,1.4,2.9
		c0,0.1,0,0.2,0,0.3c0,0.1,0,0.3,0,0.4c0,0,0,0,0,0.1c0,0.2,0,0.4-0.1,0.6c-0.2,1-0.7,1.9-1.4,2.6C7.2,9,6.2,9.4,5.2,9.5
		c-0.1,0-0.2,0-0.3,0c-0.1,0-0.3,0-0.4,0c0,0,0,0-0.1,0c-0.1,0-0.2,0-0.3,0C3.4,9.4,2.8,9.2,2.2,8.9c0,0-0.1,0-0.1,0
		C1.8,9,1.5,9.1,1.2,9.2C1.1,9.3,0.9,9.3,0.7,9.4c0,0,0-0.1,0-0.1c0.1-0.5,0.2-1,0.2-1.5c0,0,0-0.1,0-0.1C0.7,7.5,0.5,7.2,0.4,6.8
		C0.1,6.3,0,5.8-0.1,5.3c0-0.1,0-0.2,0-0.3c0-0.1,0-0.3,0-0.4c0,0,0,0,0-0.1c0-0.3,0.1-0.7,0.2-1c0.3-1.2,1.1-2.1,2.1-2.8
		c0.6-0.4,1.3-0.6,2-0.7C4.3,0,4.4,0,4.5,0z M7.2,6.6c0-0.1,0-0.2,0-0.3c0,0,0-0.1-0.1-0.1C6.7,6,6.3,5.9,5.9,5.7
		c-0.1,0-0.1,0-0.2,0C5.6,5.9,5.4,6.1,5.3,6.3c-0.1,0.1-0.1,0.1-0.2,0C5,6.2,4.9,6.1,4.7,6C4.2,5.7,3.9,5.3,3.6,4.8
		C3.5,4.5,3.4,4.2,3.3,4c0-0.2,0-0.2,0.1-0.2C3.6,3.7,3.8,3.6,4,3.5c0.1,0,0.1-0.1,0.1-0.1c0-0.1,0-0.1,0-0.2C4,2.8,3.9,2.4,3.9,2
		c0,0,0,0,0,0C3.6,1.8,3.4,1.8,3.1,1.8C2.8,1.9,2.5,2,2.3,2.3C2.2,2.5,2.1,2.7,2.1,3c0,0.6,0.1,1.1,0.3,1.7c0.3,0.8,0.8,1.6,1.5,2.1
		c0.6,0.5,1.2,0.8,1.9,1c0.2,0.1,0.4,0.1,0.6,0C6.9,7.5,7.2,7.1,7.2,6.6z"/>
</g>
</svg>
